<svg xmlns="http://www.w3.org/2000/svg" width="208" height="20">
    <path fill="#FFF" fill-rule="evenodd" d="M203.729 19.798L198.22 6.553l-5.51 13.245h-4.296v-.56l8.869-19.21h1.9l8.815 19.21v.56h-4.269zm-26.86-7.873h-3.136v7.873h-4.105V.196h4.105v7.73h3.139l4.74-7.927h4.655v.617l-6.045 9.283 6.045 9.283v.616h-4.655l-4.743-7.873zm-17.167 4.541V.196h4.132v19.602h-4.132v-3.332zm-9.788 3.332h-3.995V3.837h-5.151V.196h14.268v3.641h-5.122v15.961zm-8.662 0h-4.27l-5.51-13.245-5.509 13.245h-4.297v-.56l8.87-19.21h1.9l8.816 19.21v.56zM113.958 9.186l-4.849 6.16h-.522l-4.849-6.16v10.612h-4.131V.14h1.516l7.741 9.325 7.74-9.325h1.487v19.658h-4.133V9.186zm-25.103 7.28V.196h4.132v19.602h-4.132v-3.332zM78.189 11.51h-7.382v8.288h-4.104V.196h4.104v7.477h7.382V.196h4.133v19.602h-4.133V11.51zm-25.06 4.676c2.397 0 4.352-1.148 5.013-3.528h3.967c-.826 5.18-4.931 7.336-8.953 7.336-5.068 0-9.862-3.474-9.862-9.969C43.294 3.5 48.088-.085 53.156 0c3.884 0 8.017 2.128 8.898 6.972h-3.995c-.853-2.212-2.588-3.193-4.903-3.193-3.416 0-5.702 2.522-5.702 6.246 0 3.361 2.232 6.161 5.675 6.161zm-21.705-2.884h-3.445v6.47h-4.131V9.857h8.208c1.736 0 2.867-1.371 2.838-3.052 0-1.652-1.075-2.968-2.838-2.968h-8.208V.168c2.753 0 5.482-.028 8.237 0 4.407 0 6.802 3.249 6.802 6.722 0 2.491-1.239 4.675-3.442 5.768l4.353 6.524v.59H35.39l-3.966-6.47zM9.806 6.553L4.297 19.798H0v-.56L8.869.028h1.901l8.815 19.21v.56h-4.269L9.806 6.553z"/>
</svg>
